<svg width="1849" height="793" viewBox="0 0 1849 793" fill="none" xmlns="http://www.w3.org/2000/svg">
<mask id="mask0_208_8" style="mask-type:alpha" maskUnits="userSpaceOnUse" x="0" y="0" width="1849" height="793">
<rect width="1848.33" height="792.143" fill="#D9D9D9"/>
</mask>
<g mask="url(#mask0_208_8)">
<path d="M926.054 326.889C921.327 328.952 917.029 330.886 913.161 332.691C909.379 334.496 904.394 336.387 898.205 338.364C892.962 339.997 887.246 341.372 881.058 342.49C874.955 343.693 868.208 344.295 860.816 344.295C846.892 344.295 834.213 342.361 822.782 338.493C811.436 334.539 801.551 328.393 793.128 320.056C784.876 311.89 778.43 301.533 773.789 288.984C769.147 276.349 766.826 261.694 766.826 245.019C766.826 229.204 769.061 215.064 773.531 202.601C778 190.138 784.447 179.609 792.87 171.013C801.036 162.676 810.877 156.315 822.395 151.932C833.999 147.548 846.849 145.356 860.945 145.356C871.259 145.356 881.531 146.603 891.759 149.095C902.073 151.588 913.505 155.972 926.054 162.246V192.545H924.12C913.548 183.691 903.062 177.245 892.662 173.205C882.261 169.165 871.13 167.145 859.269 167.145C849.556 167.145 840.789 168.736 832.967 171.916C825.231 175.01 818.312 179.866 812.209 186.485C806.279 192.931 801.637 201.097 798.285 210.981C795.019 220.78 793.386 232.126 793.386 245.019C793.386 258.513 795.191 270.117 798.801 279.83C802.497 289.543 807.224 297.45 812.983 303.553C819 309.913 826.005 314.641 833.999 317.735C842.078 320.743 850.588 322.248 859.527 322.248C871.818 322.248 883.336 320.142 894.08 315.93C904.824 311.718 914.88 305.401 924.249 296.977H926.054V326.889ZM1072.13 340.813H1048.02V325.471C1045.87 326.932 1042.95 328.995 1039.25 331.659C1035.64 334.238 1032.12 336.301 1028.68 337.848C1024.64 339.825 1020 341.458 1014.76 342.747C1009.51 344.123 1003.37 344.81 996.321 344.81C983.342 344.81 972.34 340.513 963.315 331.917C954.29 323.322 949.777 312.363 949.777 299.04C949.777 288.124 952.098 279.314 956.739 272.61C961.467 265.819 968.171 260.49 976.852 256.623C985.62 252.755 996.149 250.133 1008.44 248.758C1020.73 247.383 1033.93 246.351 1048.02 245.664V241.925C1048.02 236.424 1047.03 231.868 1045.06 228.258C1043.17 224.648 1040.41 221.812 1036.8 219.749C1033.37 217.772 1029.24 216.439 1024.43 215.752C1019.61 215.064 1014.59 214.72 1009.34 214.72C1002.98 214.72 995.891 215.58 988.069 217.299C980.248 218.932 972.168 221.339 963.831 224.519H962.541V199.894C967.269 198.604 974.102 197.186 983.041 195.639C991.98 194.092 1000.79 193.318 1009.47 193.318C1019.61 193.318 1028.42 194.178 1035.9 195.897C1043.47 197.53 1050 200.366 1055.5 204.406C1060.91 208.36 1065.04 213.474 1067.88 219.749C1070.71 226.023 1072.13 233.802 1072.13 243.085V340.813ZM1048.02 305.358V265.261C1040.63 265.691 1031.91 266.335 1021.85 267.195C1011.88 268.054 1003.97 269.301 998.126 270.934C991.164 272.911 985.534 276.005 981.236 280.217C976.938 284.342 974.79 290.058 974.79 297.364C974.79 305.616 977.282 311.847 982.268 316.059C987.253 320.185 994.86 322.248 1005.09 322.248C1013.6 322.248 1021.38 320.615 1028.42 317.348C1035.47 313.996 1042 309.999 1048.02 305.358ZM1193.58 339.524C1189.03 340.728 1184.04 341.716 1178.63 342.49C1173.3 343.263 1168.53 343.65 1164.32 343.65C1149.62 343.65 1138.44 339.696 1130.79 331.788C1123.14 323.881 1119.32 311.203 1119.32 293.754V217.17H1102.95V196.799H1119.32V155.413H1143.56V196.799H1193.58V217.17H1143.56V282.795C1143.56 290.359 1143.73 296.29 1144.07 300.587C1144.42 304.799 1145.62 308.753 1147.68 312.449C1149.58 315.887 1152.15 318.423 1155.42 320.056C1158.77 321.603 1163.84 322.377 1170.63 322.377C1174.59 322.377 1178.71 321.818 1183.01 320.7C1187.31 319.497 1190.4 318.509 1192.29 317.735H1193.58V339.524ZM1334.89 340.813H1310.78V325.471C1308.63 326.932 1305.71 328.995 1302.01 331.659C1298.4 334.238 1294.88 336.301 1291.44 337.848C1287.4 339.825 1282.76 341.458 1277.52 342.747C1272.27 344.123 1266.13 344.81 1259.08 344.81C1246.1 344.81 1235.1 340.513 1226.07 331.917C1217.05 323.322 1212.54 312.363 1212.54 299.04C1212.54 288.124 1214.86 279.314 1219.5 272.61C1224.23 265.819 1230.93 260.49 1239.61 256.623C1248.38 252.755 1258.91 250.133 1271.2 248.758C1283.49 247.383 1296.68 246.351 1310.78 245.664V241.925C1310.78 236.424 1309.79 231.868 1307.81 228.258C1305.92 224.648 1303.17 221.812 1299.56 219.749C1296.12 217.772 1292 216.439 1287.19 215.752C1282.37 215.064 1277.34 214.72 1272.1 214.72C1265.74 214.72 1258.65 215.58 1250.83 217.299C1243.01 218.932 1234.93 221.339 1226.59 224.519H1225.3V199.894C1230.03 198.604 1236.86 197.186 1245.8 195.639C1254.74 194.092 1263.55 193.318 1272.23 193.318C1282.37 193.318 1291.18 194.178 1298.66 195.897C1306.22 197.53 1312.76 200.366 1318.26 204.406C1323.67 208.36 1327.8 213.474 1330.64 219.749C1333.47 226.023 1334.89 233.802 1334.89 243.085V340.813ZM1310.78 305.358V265.261C1303.39 265.691 1294.66 266.335 1284.61 267.195C1274.64 268.054 1266.73 269.301 1260.88 270.934C1253.92 272.911 1248.29 276.005 1243.99 280.217C1239.7 284.342 1237.55 290.058 1237.55 297.364C1237.55 305.616 1240.04 311.847 1245.03 316.059C1250.01 320.185 1257.62 322.248 1267.85 322.248C1276.36 322.248 1284.13 320.615 1291.18 317.348C1298.23 313.996 1304.76 309.999 1310.78 305.358ZM1406.06 340.813H1381.82V140.199H1406.06V340.813ZM1576.76 268.871C1576.76 292.336 1570.74 310.859 1558.71 324.439C1546.68 338.02 1530.56 344.81 1510.36 344.81C1489.99 344.81 1473.79 338.02 1461.76 324.439C1449.81 310.859 1443.84 292.336 1443.84 268.871C1443.84 245.406 1449.81 226.883 1461.76 213.302C1473.79 199.636 1489.99 192.802 1510.36 192.802C1530.56 192.802 1546.68 199.636 1558.71 213.302C1570.74 226.883 1576.76 245.406 1576.76 268.871ZM1551.75 268.871C1551.75 250.219 1548.1 236.381 1540.79 227.356C1533.48 218.245 1523.34 213.689 1510.36 213.689C1497.21 213.689 1486.98 218.245 1479.68 227.356C1472.46 236.381 1468.85 250.219 1468.85 268.871C1468.85 286.921 1472.5 300.63 1479.81 309.999C1487.11 319.282 1497.3 323.924 1510.36 323.924C1523.26 323.924 1533.36 319.325 1540.66 310.128C1548.05 300.845 1551.75 287.093 1551.75 268.871ZM1731.22 324.439C1731.22 348.85 1725.67 366.771 1714.59 378.203C1703.5 389.635 1686.44 395.351 1663.4 395.351C1655.75 395.351 1648.27 394.792 1640.97 393.675C1633.75 392.643 1626.61 391.139 1619.57 389.162V364.408H1620.86C1624.81 365.955 1631.08 367.846 1639.68 370.08C1648.27 372.401 1656.87 373.562 1665.46 373.562C1673.72 373.562 1680.55 372.573 1685.96 370.596C1691.38 368.619 1695.59 365.869 1698.6 362.345C1701.61 358.993 1703.76 354.953 1705.05 350.225C1706.34 345.498 1706.98 340.212 1706.98 334.367V321.216C1699.67 327.061 1692.67 331.445 1685.96 334.367C1679.35 337.203 1670.88 338.622 1660.57 338.622C1643.38 338.622 1629.71 332.433 1619.57 320.056C1609.51 307.593 1604.48 290.058 1604.48 267.453C1604.48 255.075 1606.2 244.417 1609.64 235.478C1613.16 226.453 1617.93 218.674 1623.95 212.142C1629.54 206.039 1636.33 201.312 1644.32 197.96C1652.31 194.521 1660.26 192.802 1668.17 192.802C1676.51 192.802 1683.47 193.662 1689.06 195.381C1694.73 197.014 1700.71 199.55 1706.98 202.988L1708.53 196.799H1731.22V324.439ZM1706.98 301.232V222.714C1700.53 219.792 1694.52 217.729 1688.93 216.525C1683.43 215.236 1677.93 214.592 1672.43 214.592C1659.1 214.592 1648.62 219.061 1640.97 228C1633.32 236.939 1629.49 249.918 1629.49 266.937C1629.49 283.096 1632.33 295.344 1638 303.682C1643.68 312.019 1653.09 316.188 1666.24 316.188C1673.29 316.188 1680.33 314.856 1687.38 312.191C1694.52 309.441 1701.05 305.788 1706.98 301.232Z" fill="white"/>
<path d="M926.054 326.889L927.814 330.923L930.455 329.77V326.889H926.054ZM913.161 332.691L911.3 328.703L911.283 328.711L911.266 328.719L913.161 332.691ZM898.205 338.364L899.514 342.566L899.529 342.561L899.545 342.556L898.205 338.364ZM881.058 342.49L880.276 338.159L880.241 338.165L880.206 338.172L881.058 342.49ZM822.782 338.493L821.334 342.648L821.352 342.655L821.371 342.661L822.782 338.493ZM793.128 320.056L796.224 316.928L796.223 316.928L793.128 320.056ZM773.789 288.984L769.658 290.501L769.661 290.51L773.789 288.984ZM792.87 171.013L796.013 174.094L796.014 174.093L792.87 171.013ZM822.395 151.932L820.84 147.815L820.83 147.819L822.395 151.932ZM891.759 149.095L890.717 153.371L890.725 153.373L891.759 149.095ZM926.054 162.246H930.455V159.526L928.022 158.31L926.054 162.246ZM926.054 192.545V196.945H930.455V192.545H926.054ZM924.12 192.545L921.295 195.919L922.521 196.945H924.12V192.545ZM832.967 171.916L834.602 176.002L834.613 175.997L834.625 175.993L832.967 171.916ZM812.209 186.485L808.974 183.502L808.971 183.505L812.209 186.485ZM798.285 210.981L794.117 209.568L794.114 209.579L794.11 209.59L798.285 210.981ZM798.801 279.83L794.676 281.363L794.682 281.379L794.688 281.395L798.801 279.83ZM812.983 303.553L809.782 306.573L809.786 306.577L812.983 303.553ZM833.999 317.735L832.41 321.839L832.436 321.849L832.463 321.859L833.999 317.735ZM924.249 296.977V292.577H922.562L921.307 293.705L924.249 296.977ZM926.054 296.977H930.455V292.577H926.054V296.977ZM924.294 322.856C919.54 324.93 915.208 326.88 911.3 328.703L915.022 336.679C918.851 334.892 923.114 332.974 927.814 330.923L924.294 322.856ZM911.266 328.719C907.734 330.405 902.956 332.226 896.866 334.172L899.545 342.556C905.832 340.547 911.025 338.587 915.057 336.663L911.266 328.719ZM896.897 334.162C891.849 335.734 886.311 337.069 880.276 338.159L881.84 346.82C888.181 345.675 894.076 344.259 899.514 342.566L896.897 334.162ZM880.206 338.172C874.431 339.311 867.974 339.894 860.816 339.894V348.695C868.442 348.695 875.48 348.075 881.909 346.807L880.206 338.172ZM860.816 339.894C847.299 339.894 835.106 338.017 824.192 334.324L821.371 342.661C833.321 346.705 846.484 348.695 860.816 348.695V339.894ZM824.23 334.337C813.494 330.596 804.175 324.798 796.224 316.928L790.032 323.184C798.928 331.989 809.378 338.482 821.334 342.648L824.23 334.337ZM796.223 316.928C788.494 309.278 782.368 299.495 777.916 287.457L769.661 290.51C774.491 303.571 781.259 314.502 790.032 323.184L796.223 316.928ZM777.919 287.466C773.493 275.418 771.227 261.295 771.227 245.019H762.426C762.426 262.092 764.801 277.28 769.658 290.501L777.919 287.466ZM771.227 245.019C771.227 229.614 773.404 215.991 777.673 204.087L769.388 201.115C764.718 214.138 762.426 228.793 762.426 245.019H771.227ZM777.673 204.087C781.95 192.16 788.077 182.192 796.013 174.094L789.727 167.933C780.817 177.025 774.05 188.115 769.388 201.115L777.673 204.087ZM796.014 174.093C803.71 166.235 813.003 160.215 823.96 156.045L820.83 147.819C808.751 152.416 798.362 159.117 789.726 167.934L796.014 174.093ZM823.95 156.049C834.994 151.877 847.308 149.757 860.945 149.757V140.956C846.389 140.956 833.003 143.22 820.84 147.815L823.95 156.049ZM860.945 149.757C870.901 149.757 880.823 150.96 890.717 153.371L892.801 144.82C882.239 142.246 871.618 140.956 860.945 140.956V149.757ZM890.725 153.373C900.632 155.767 911.745 160.012 924.086 166.182L928.022 158.31C915.265 151.931 903.515 147.409 892.793 144.818L890.725 153.373ZM921.653 162.246V192.545H930.455V162.246H921.653ZM926.054 188.144H924.12V196.945H926.054V188.144ZM926.946 189.171C916.089 180.079 905.194 173.352 894.255 169.103L891.068 177.307C900.929 181.138 911.007 187.304 921.295 195.919L926.946 189.171ZM894.255 169.103C883.315 164.854 871.641 162.745 859.269 162.745V171.546C870.62 171.546 881.207 173.477 891.068 177.307L894.255 169.103ZM859.269 162.745C849.072 162.745 839.731 164.415 831.31 167.839L834.625 175.993C841.847 173.056 850.04 171.546 859.269 171.546V162.745ZM831.333 167.83C822.94 171.187 815.485 176.44 808.974 183.502L815.445 189.468C821.139 183.293 827.523 178.833 834.602 176.002L831.333 167.83ZM808.971 183.505C802.553 190.481 797.63 199.212 794.117 209.568L802.453 212.395C805.645 202.982 810.005 195.381 815.448 189.464L808.971 183.505ZM794.11 209.59C790.663 219.933 788.985 231.765 788.985 245.019H797.787C797.787 232.487 799.375 221.628 802.46 212.373L794.11 209.59ZM788.985 245.019C788.985 258.887 790.838 271.036 794.676 281.363L802.926 278.297C799.544 269.198 797.787 258.14 797.787 245.019H788.985ZM794.688 281.395C798.542 291.523 803.544 299.963 809.782 306.573L816.184 300.532C810.904 294.938 806.452 287.562 802.914 278.265L794.688 281.395ZM809.786 306.577C816.242 313.402 823.793 318.504 832.41 321.839L835.587 313.631C828.217 310.778 821.757 306.425 816.18 300.529L809.786 306.577ZM832.463 321.859C841.052 325.057 850.083 326.648 859.527 326.648V317.847C851.092 317.847 843.104 316.43 835.534 313.611L832.463 321.859ZM859.527 326.648C872.331 326.648 884.397 324.452 895.686 320.027L892.474 311.833C882.274 315.831 871.304 317.847 859.527 317.847V326.648ZM895.686 320.027C906.964 315.606 917.466 308.994 927.192 300.25L921.307 293.705C912.294 301.808 902.683 307.831 892.474 311.833L895.686 320.027ZM924.249 301.378H926.054V292.577H924.249V301.378ZM921.653 296.977V326.889H930.455V296.977H921.653ZM1072.13 340.813V345.214H1076.53V340.813H1072.13ZM1048.02 340.813H1043.62V345.214H1048.02V340.813ZM1048.02 325.471H1052.42V317.156L1045.55 321.832L1048.02 325.471ZM1039.25 331.659L1041.81 335.241L1041.82 335.235L1041.83 335.229L1039.25 331.659ZM1028.68 337.848L1026.88 333.835L1026.81 333.864L1026.75 333.895L1028.68 337.848ZM1014.76 342.747L1013.71 338.474L1013.67 338.482L1013.64 338.491L1014.76 342.747ZM963.315 331.917L960.28 335.104L963.315 331.917ZM956.739 272.61L953.128 270.095L953.121 270.105L956.739 272.61ZM976.852 256.623L975.076 252.596L975.069 252.599L975.061 252.603L976.852 256.623ZM1048.02 245.664L1048.24 250.059L1052.42 249.855V245.664H1048.02ZM1045.06 228.258L1041.16 230.3L1041.18 230.336L1041.2 230.372L1045.06 228.258ZM1036.8 219.749L1034.61 223.564L1034.62 223.57L1036.8 219.749ZM988.069 217.299L988.969 221.607L988.991 221.602L989.014 221.597L988.069 217.299ZM963.831 224.519V228.92H964.641L965.399 228.631L963.831 224.519ZM962.541 224.519H958.141V228.92H962.541V224.519ZM962.541 199.894L961.383 195.648L958.141 196.532V199.894H962.541ZM1035.9 195.897L1034.92 200.186L1034.94 200.192L1034.97 200.198L1035.9 195.897ZM1055.5 204.406L1052.89 207.953L1052.9 207.96L1055.5 204.406ZM1048.02 305.358L1050.71 308.842L1052.42 307.521V305.358H1048.02ZM1048.02 265.261H1052.42V260.597L1047.77 260.867L1048.02 265.261ZM1021.85 267.195L1021.47 262.81L1021.47 262.81L1021.85 267.195ZM998.126 270.934L996.942 266.695L996.933 266.698L996.924 266.7L998.126 270.934ZM981.236 280.217L984.284 283.391L984.3 283.376L984.316 283.36L981.236 280.217ZM982.268 316.059L979.427 319.421L979.445 319.435L979.462 319.449L982.268 316.059ZM1028.42 317.348L1030.27 321.341L1030.29 321.332L1030.31 321.323L1028.42 317.348ZM1072.13 336.413H1048.02V345.214H1072.13V336.413ZM1052.42 340.813V325.471H1043.62V340.813H1052.42ZM1045.55 321.832C1043.35 323.326 1040.39 325.416 1036.68 328.09L1041.83 335.229C1045.51 332.574 1048.4 330.538 1050.5 329.11L1045.55 321.832ZM1036.7 328.078C1033.28 330.517 1030.01 332.425 1026.88 333.835L1030.49 341.861C1034.23 340.177 1038.01 337.959 1041.81 335.241L1036.7 328.078ZM1026.75 333.895C1023.04 335.71 1018.7 337.245 1013.71 338.474L1015.81 347.021C1021.3 345.671 1026.24 343.94 1030.62 341.801L1026.75 333.895ZM1013.64 338.491C1008.85 339.747 1003.1 340.409 996.321 340.409V349.211C1003.64 349.211 1010.18 348.499 1015.87 347.004L1013.64 338.491ZM996.321 340.409C984.42 340.409 974.52 336.512 966.35 328.731L960.28 335.104C970.16 344.514 982.264 349.211 996.321 349.211V340.409ZM966.35 328.731C958.262 321.028 954.178 311.251 954.178 299.04H945.376C945.376 313.475 950.318 325.616 960.28 335.104L966.35 328.731ZM954.178 299.04C954.178 288.722 956.373 280.871 960.358 275.115L953.121 270.105C947.823 277.757 945.376 287.527 945.376 299.04H954.178ZM960.351 275.124C964.555 269.085 970.584 264.233 978.643 260.642L975.061 252.603C965.758 256.748 958.378 262.554 953.128 270.095L960.351 275.124ZM978.629 260.649C986.888 257.005 996.96 254.471 1008.93 253.131L1007.95 244.384C995.337 245.796 984.351 248.504 975.076 252.596L978.629 260.649ZM1008.93 253.131C1021.12 251.768 1034.22 250.743 1048.24 250.059L1047.81 241.268C1033.63 241.959 1020.35 242.998 1007.95 244.384L1008.93 253.131ZM1052.42 245.664V241.925H1043.62V245.664H1052.42ZM1052.42 241.925C1052.42 235.924 1051.35 230.584 1048.92 226.144L1041.2 230.372C1042.72 233.152 1043.62 236.923 1043.62 241.925H1052.42ZM1048.95 226.216C1046.67 221.846 1043.31 218.399 1038.99 215.928L1034.62 223.57C1037.52 225.224 1039.67 227.45 1041.16 230.3L1048.95 226.216ZM1039 215.934C1034.98 213.623 1030.3 212.145 1025.05 211.395L1023.81 220.108C1028.19 220.734 1031.75 221.921 1034.61 223.564L1039 215.934ZM1025.05 211.395C1020.01 210.676 1014.78 210.32 1009.34 210.32V219.121C1014.39 219.121 1019.21 219.452 1023.81 220.108L1025.05 211.395ZM1009.34 210.32C1002.6 210.32 995.181 211.23 987.125 213.001L989.014 221.597C996.601 219.93 1003.37 219.121 1009.34 219.121V210.32ZM987.17 212.991C979.096 214.677 970.792 217.153 962.262 220.407L965.399 228.631C973.544 225.524 981.399 223.187 988.969 221.607L987.17 212.991ZM963.831 220.118H962.541V228.92H963.831V220.118ZM966.942 224.519V199.894H958.141V224.519H966.942ZM963.699 204.139C968.224 202.905 974.895 201.515 983.792 199.975L982.291 191.303C973.309 192.857 966.313 194.303 961.383 195.648L963.699 204.139ZM983.792 199.975C992.494 198.469 1001.05 197.719 1009.47 197.719V188.917C1000.53 188.917 991.466 189.714 982.291 191.303L983.792 199.975ZM1009.47 197.719C1019.38 197.719 1027.85 198.56 1034.92 200.186L1036.89 191.608C1029 189.795 1019.85 188.917 1009.47 188.917V197.719ZM1034.97 200.198C1042.01 201.718 1047.96 204.326 1052.89 207.953L1058.1 200.859C1052.04 196.406 1044.92 193.341 1036.83 191.595L1034.97 200.198ZM1052.9 207.96C1057.69 211.453 1061.33 215.96 1063.87 221.561L1071.89 217.936C1068.75 210.988 1064.14 205.267 1058.09 200.852L1052.9 207.96ZM1063.87 221.561C1066.37 227.105 1067.73 234.221 1067.73 243.085H1076.53C1076.53 233.383 1075.05 224.942 1071.89 217.936L1063.87 221.561ZM1067.73 243.085V340.813H1076.53V243.085H1067.73ZM1052.42 305.358V265.261H1043.62V305.358H1052.42ZM1047.77 260.867C1040.32 261.3 1031.56 261.948 1021.47 262.81L1022.22 271.58C1032.25 270.722 1040.94 270.081 1048.28 269.654L1047.77 260.867ZM1021.47 262.81C1011.38 263.68 1003.16 264.957 996.942 266.695L999.31 275.172C1004.78 273.645 1012.38 272.428 1022.23 271.579L1021.47 262.81ZM996.924 266.7C989.397 268.837 983.075 272.252 978.156 277.074L984.316 283.36C987.992 279.757 992.93 276.984 999.328 275.167L996.924 266.7ZM978.188 277.042C972.837 282.179 970.389 289.15 970.389 297.364H979.19C979.19 290.966 981.04 286.506 984.284 283.391L978.188 277.042ZM970.389 297.364C970.389 306.541 973.201 314.16 979.427 319.421L985.108 312.697C981.364 309.535 979.19 304.691 979.19 297.364H970.389ZM979.462 319.449C985.581 324.513 994.396 326.648 1005.09 326.648V317.847C995.324 317.847 988.925 315.856 985.073 312.669L979.462 319.449ZM1005.09 326.648C1014.17 326.648 1022.59 324.901 1030.27 321.341L1026.57 313.355C1020.16 316.328 1013.02 317.847 1005.09 317.847V326.648ZM1030.31 321.323C1037.64 317.84 1044.44 313.68 1050.71 308.842L1045.33 301.873C1039.57 306.319 1033.31 310.153 1026.53 313.374L1030.31 321.323ZM1193.58 339.524L1194.71 343.779L1197.98 342.913V339.524H1193.58ZM1178.63 342.49L1178 338.133L1177.99 338.134L1178.63 342.49ZM1130.79 331.788L1127.63 334.848L1130.79 331.788ZM1119.32 217.17H1123.72V212.769H1119.32V217.17ZM1102.95 217.17H1098.54V221.571H1102.95V217.17ZM1102.95 196.799V192.398H1098.54V196.799H1102.95ZM1119.32 196.799V201.2H1123.72V196.799H1119.32ZM1119.32 155.413V151.012H1114.92V155.413H1119.32ZM1143.56 155.413H1147.96V151.012H1143.56V155.413ZM1143.56 196.799H1139.16V201.2H1143.56V196.799ZM1193.58 196.799H1197.98V192.398H1193.58V196.799ZM1193.58 217.17V221.571H1197.98V217.17H1193.58ZM1143.56 217.17V212.769H1139.16V217.17H1143.56ZM1144.07 300.587L1139.69 300.938L1139.69 300.946L1144.07 300.587ZM1147.68 312.449L1151.54 310.328L1151.53 310.316L1151.53 310.304L1147.68 312.449ZM1155.42 320.056L1153.45 323.992L1153.51 324.023L1153.58 324.052L1155.42 320.056ZM1183.01 320.7L1184.12 324.96L1184.16 324.949L1184.2 324.938L1183.01 320.7ZM1192.29 317.735V313.334H1191.43L1190.63 313.662L1192.29 317.735ZM1193.58 317.735H1197.98V313.334H1193.58V317.735ZM1192.46 335.269C1188.09 336.423 1183.28 337.38 1178 338.133L1179.25 346.846C1184.81 346.052 1189.96 345.032 1194.71 343.779L1192.46 335.269ZM1177.99 338.134C1172.82 338.886 1168.27 339.249 1164.32 339.249V348.051C1168.79 348.051 1173.78 347.641 1179.26 346.845L1177.99 338.134ZM1164.32 339.249C1150.39 339.249 1140.53 335.52 1133.96 328.729L1127.63 334.848C1136.36 343.872 1148.84 348.051 1164.32 348.051V339.249ZM1133.96 328.729C1127.46 322.01 1123.72 310.704 1123.72 293.754H1114.92C1114.92 311.702 1118.83 325.752 1127.63 334.848L1133.96 328.729ZM1123.72 293.754V217.17H1114.92V293.754H1123.72ZM1119.32 212.769H1102.95V221.571H1119.32V212.769ZM1107.35 217.17V196.799H1098.54V217.17H1107.35ZM1102.95 201.2H1119.32V192.398H1102.95V201.2ZM1123.72 196.799V155.413H1114.92V196.799H1123.72ZM1119.32 159.814H1143.56V151.012H1119.32V159.814ZM1139.16 155.413V196.799H1147.96V155.413H1139.16ZM1143.56 201.2H1193.58V192.398H1143.56V201.2ZM1189.18 196.799V217.17H1197.98V196.799H1189.18ZM1193.58 212.769H1143.56V221.571H1193.58V212.769ZM1139.16 217.17V282.795H1147.96V217.17H1139.16ZM1139.16 282.795C1139.16 290.403 1139.33 296.469 1139.69 300.938L1148.46 300.237C1148.13 296.111 1147.96 290.315 1147.96 282.795H1139.16ZM1139.69 300.946C1140.08 305.786 1141.47 310.349 1143.84 314.594L1151.53 310.304C1149.77 307.157 1148.75 303.812 1148.46 300.229L1139.69 300.946ZM1143.83 314.57C1146.12 318.729 1149.33 321.929 1153.45 323.992L1157.39 316.12C1154.98 314.916 1153.03 313.045 1151.54 310.328L1143.83 314.57ZM1153.58 324.052C1157.81 326.005 1163.65 326.777 1170.63 326.777V317.976C1164.03 317.976 1159.74 317.201 1157.26 316.06L1153.58 324.052ZM1170.63 326.777C1175 326.777 1179.5 326.16 1184.12 324.96L1181.9 316.441C1177.92 317.476 1174.17 317.976 1170.63 317.976V326.777ZM1184.2 324.938C1188.51 323.73 1191.82 322.685 1193.96 321.808L1190.63 313.662C1188.99 314.333 1186.1 315.265 1181.82 316.463L1184.2 324.938ZM1192.29 322.136H1193.58V313.334H1192.29V322.136ZM1189.18 317.735V339.524H1197.98V317.735H1189.18ZM1334.89 340.813V345.214H1339.29V340.813H1334.89ZM1310.78 340.813H1306.38V345.214H1310.78V340.813ZM1310.78 325.471H1315.18V317.156L1308.31 321.832L1310.78 325.471ZM1302.01 331.659L1304.57 335.241L1304.58 335.235L1304.59 335.229L1302.01 331.659ZM1291.44 337.848L1289.63 333.835L1289.57 333.864L1289.51 333.895L1291.44 337.848ZM1277.52 342.747L1276.47 338.474L1276.43 338.482L1276.4 338.491L1277.52 342.747ZM1226.07 331.917L1223.04 335.104L1226.07 331.917ZM1219.5 272.61L1215.89 270.095L1215.88 270.105L1219.5 272.61ZM1239.61 256.623L1237.83 252.596L1237.83 252.599L1237.82 252.603L1239.61 256.623ZM1310.78 245.664L1310.99 250.059L1315.18 249.855V245.664H1310.78ZM1307.81 228.258L1303.92 230.3L1303.94 230.336L1303.95 230.372L1307.81 228.258ZM1299.56 219.749L1297.37 223.564L1297.38 223.57L1299.56 219.749ZM1250.83 217.299L1251.73 221.607L1251.75 221.602L1251.77 221.597L1250.83 217.299ZM1226.59 224.519V228.92H1227.4L1228.16 228.631L1226.59 224.519ZM1225.3 224.519H1220.9V228.92H1225.3V224.519ZM1225.3 199.894L1224.14 195.648L1220.9 196.532V199.894H1225.3ZM1298.66 195.897L1297.67 200.186L1297.7 200.192L1297.73 200.198L1298.66 195.897ZM1318.26 204.406L1315.65 207.953L1315.66 207.96L1318.26 204.406ZM1310.78 305.358L1313.47 308.842L1315.18 307.521V305.358H1310.78ZM1310.78 265.261H1315.18V260.597L1310.52 260.867L1310.78 265.261ZM1284.61 267.195L1284.23 262.81L1284.23 262.81L1284.61 267.195ZM1260.88 270.934L1259.7 266.695L1259.69 266.698L1259.68 266.7L1260.88 270.934ZM1243.99 280.217L1247.04 283.391L1247.06 283.376L1247.07 283.36L1243.99 280.217ZM1245.03 316.059L1242.19 319.421L1242.2 319.435L1242.22 319.449L1245.03 316.059ZM1291.18 317.348L1293.03 321.341L1293.05 321.332L1293.07 321.323L1291.18 317.348ZM1334.89 336.413H1310.78V345.214H1334.89V336.413ZM1315.18 340.813V325.471H1306.38V340.813H1315.18ZM1308.31 321.832C1306.11 323.326 1303.15 325.416 1299.44 328.09L1304.59 335.229C1308.27 332.574 1311.15 330.538 1313.25 329.11L1308.31 321.832ZM1299.45 328.078C1296.04 330.517 1292.77 332.425 1289.63 333.835L1293.25 341.861C1296.99 340.177 1300.76 337.959 1304.57 335.241L1299.45 328.078ZM1289.51 333.895C1285.8 335.71 1281.46 337.245 1276.47 338.474L1278.57 347.021C1284.06 345.671 1289 343.94 1293.37 341.801L1289.51 333.895ZM1276.4 338.491C1271.61 339.747 1265.86 340.409 1259.08 340.409V349.211C1266.4 349.211 1272.93 348.499 1278.63 347.004L1276.4 338.491ZM1259.08 340.409C1247.18 340.409 1237.28 336.512 1229.11 328.731L1223.04 335.104C1232.92 344.514 1245.02 349.211 1259.08 349.211V340.409ZM1229.11 328.731C1221.02 321.028 1216.94 311.251 1216.94 299.04H1208.13C1208.13 313.475 1213.08 325.616 1223.04 335.104L1229.11 328.731ZM1216.94 299.04C1216.94 288.722 1219.13 280.871 1223.12 275.115L1215.88 270.105C1210.58 277.757 1208.13 287.527 1208.13 299.04H1216.94ZM1223.11 275.124C1227.31 269.085 1233.34 264.233 1241.4 260.642L1237.82 252.603C1228.52 256.748 1221.14 262.554 1215.89 270.095L1223.11 275.124ZM1241.39 260.649C1249.65 257.005 1259.72 254.471 1271.69 253.131L1270.71 244.384C1258.1 245.796 1247.11 248.504 1237.83 252.596L1241.39 260.649ZM1271.69 253.131C1283.88 251.768 1296.98 250.743 1310.99 250.059L1310.57 241.268C1296.39 241.959 1283.1 242.998 1270.71 244.384L1271.69 253.131ZM1315.18 245.664V241.925H1306.38V245.664H1315.18ZM1315.18 241.925C1315.18 235.924 1314.11 230.584 1311.67 226.144L1303.95 230.372C1305.48 233.152 1306.38 236.923 1306.38 241.925H1315.18ZM1311.71 226.216C1309.42 221.846 1306.07 218.399 1301.75 215.928L1297.38 223.57C1300.28 225.224 1302.42 227.45 1303.92 230.3L1311.71 226.216ZM1301.76 215.934C1297.74 213.623 1293.05 212.145 1287.81 211.395L1286.56 220.108C1290.94 220.734 1294.51 221.921 1297.37 223.564L1301.76 215.934ZM1287.81 211.395C1282.77 210.676 1277.54 210.32 1272.1 210.32V219.121C1277.15 219.121 1281.97 219.452 1286.56 220.108L1287.81 211.395ZM1272.1 210.32C1265.35 210.32 1257.94 211.23 1249.88 213.001L1251.77 221.597C1259.36 219.93 1266.13 219.121 1272.1 219.121V210.32ZM1249.93 212.991C1241.85 214.677 1233.55 217.153 1225.02 220.407L1228.16 228.631C1236.3 225.524 1244.16 223.187 1251.73 221.607L1249.93 212.991ZM1226.59 220.118H1225.3V228.92H1226.59V220.118ZM1229.7 224.519V199.894H1220.9V224.519H1229.7ZM1226.46 204.139C1230.98 202.905 1237.65 201.515 1246.55 199.975L1245.05 191.303C1236.07 192.857 1229.07 194.303 1224.14 195.648L1226.46 204.139ZM1246.55 199.975C1255.25 198.469 1263.81 197.719 1272.23 197.719V188.917C1263.29 188.917 1254.22 189.714 1245.05 191.303L1246.55 199.975ZM1272.23 197.719C1282.14 197.719 1290.6 198.56 1297.67 200.186L1299.65 191.608C1291.76 189.795 1282.6 188.917 1272.23 188.917V197.719ZM1297.73 200.198C1304.77 201.718 1310.71 204.326 1315.65 207.953L1320.86 200.859C1314.8 196.406 1307.68 193.341 1299.59 191.595L1297.73 200.198ZM1315.66 207.96C1320.45 211.453 1324.09 215.96 1326.62 221.561L1334.65 217.936C1331.5 210.988 1326.9 205.267 1320.85 200.852L1315.66 207.96ZM1326.62 221.561C1329.13 227.105 1330.49 234.221 1330.49 243.085H1339.29C1339.29 233.383 1337.81 224.942 1334.65 217.936L1326.62 221.561ZM1330.49 243.085V340.813H1339.29V243.085H1330.49ZM1315.18 305.358V265.261H1306.38V305.358H1315.18ZM1310.52 260.867C1303.08 261.3 1294.32 261.948 1284.23 262.81L1284.98 271.58C1295.01 270.722 1303.69 270.081 1311.04 269.654L1310.52 260.867ZM1284.23 262.81C1274.14 263.68 1265.92 264.957 1259.7 266.695L1262.07 275.172C1267.54 273.645 1275.14 272.428 1284.99 271.579L1284.23 262.81ZM1259.68 266.7C1252.16 268.837 1245.83 272.252 1240.91 277.074L1247.07 283.36C1250.75 279.757 1255.69 276.984 1262.09 275.167L1259.68 266.7ZM1240.95 277.042C1235.6 282.179 1233.15 289.15 1233.15 297.364H1241.95C1241.95 290.966 1243.8 286.506 1247.04 283.391L1240.95 277.042ZM1233.15 297.364C1233.15 306.541 1235.96 314.16 1242.19 319.421L1247.87 312.697C1244.12 309.535 1241.95 304.691 1241.95 297.364H1233.15ZM1242.22 319.449C1248.34 324.513 1257.15 326.648 1267.85 326.648V317.847C1258.08 317.847 1251.68 315.856 1247.83 312.669L1242.22 319.449ZM1267.85 326.648C1276.93 326.648 1285.35 324.901 1293.03 321.341L1289.33 313.355C1282.92 316.328 1275.78 317.847 1267.85 317.847V326.648ZM1293.07 321.323C1300.4 317.84 1307.2 313.68 1313.47 308.842L1308.09 301.873C1302.33 306.319 1296.07 310.153 1289.29 313.374L1293.07 321.323ZM1406.06 340.813V345.214H1410.46V340.813H1406.06ZM1381.82 340.813H1377.42V345.214H1381.82V340.813ZM1381.82 140.199V135.798H1377.42V140.199H1381.82ZM1406.06 140.199H1410.46V135.798H1406.06V140.199ZM1406.06 336.413H1381.82V345.214H1406.06V336.413ZM1386.22 340.813V140.199H1377.42V340.813H1386.22ZM1381.82 144.6H1406.06V135.798H1381.82V144.6ZM1401.66 140.199V340.813H1410.46V140.199H1401.66ZM1558.71 324.439L1555.42 321.521L1558.71 324.439ZM1461.76 324.439L1458.45 327.346L1458.46 327.352L1458.46 327.358L1461.76 324.439ZM1461.76 213.302L1458.45 210.394L1458.45 210.395L1461.76 213.302ZM1558.71 213.302L1555.41 216.21L1555.42 216.221L1558.71 213.302ZM1540.79 227.356L1537.36 230.109L1537.36 230.117L1537.37 230.124L1540.79 227.356ZM1479.68 227.356L1476.24 224.602L1476.24 224.606L1479.68 227.356ZM1479.81 309.999L1476.34 312.706L1476.34 312.713L1476.35 312.721L1479.81 309.999ZM1540.66 310.128L1537.22 307.387L1537.22 307.391L1540.66 310.128ZM1572.36 268.871C1572.36 291.584 1566.55 308.958 1555.42 321.521L1562.01 327.358C1574.94 312.76 1581.16 293.088 1581.16 268.871H1572.36ZM1555.42 321.521C1544.32 334.046 1529.46 340.409 1510.36 340.409V349.211C1531.66 349.211 1549.04 341.994 1562.01 327.358L1555.42 321.521ZM1510.36 340.409C1491.08 340.409 1476.14 334.037 1465.05 321.521L1458.46 327.358C1471.44 342.003 1488.9 349.211 1510.36 349.211V340.409ZM1465.06 321.533C1454.01 308.97 1448.24 291.592 1448.24 268.871H1439.43C1439.43 293.08 1445.61 312.748 1458.45 327.346L1465.06 321.533ZM1448.24 268.871C1448.24 246.15 1454.01 228.771 1465.06 216.209L1458.45 210.395C1445.61 224.994 1439.43 244.661 1439.43 268.871H1448.24ZM1465.06 216.21C1476.15 203.612 1491.09 197.203 1510.36 197.203V188.402C1488.9 188.402 1471.43 195.66 1458.45 210.394L1465.06 216.21ZM1510.36 197.203C1529.45 197.203 1544.31 203.603 1555.41 216.21L1562.01 210.394C1549.05 195.668 1531.67 188.402 1510.36 188.402V197.203ZM1555.42 216.221C1566.55 228.783 1572.36 246.158 1572.36 268.871H1581.16C1581.16 244.654 1574.94 224.982 1562.01 210.384L1555.42 216.221ZM1556.15 268.871C1556.15 249.781 1552.43 234.746 1544.21 224.587L1537.37 230.124C1543.76 238.015 1547.35 250.657 1547.35 268.871H1556.15ZM1544.22 224.602C1535.98 214.325 1524.51 209.288 1510.36 209.288V218.09C1522.18 218.09 1530.99 222.164 1537.36 230.109L1544.22 224.602ZM1510.36 209.288C1496.07 209.288 1484.5 214.31 1476.24 224.602L1483.11 230.109C1489.47 222.179 1498.36 218.09 1510.36 218.09V209.288ZM1476.24 224.606C1468.12 234.764 1464.45 249.79 1464.45 268.871H1473.25C1473.25 250.648 1476.8 237.998 1483.11 230.105L1476.24 224.606ZM1464.45 268.871C1464.45 287.418 1468.19 302.253 1476.34 312.706L1483.28 307.293C1476.82 299.008 1473.25 286.424 1473.25 268.871H1464.45ZM1476.35 312.721C1484.58 323.186 1496.11 328.325 1510.36 328.325V319.523C1498.48 319.523 1489.64 315.378 1483.26 307.278L1476.35 312.721ZM1510.36 328.325C1524.45 328.325 1535.88 323.225 1544.11 312.866L1537.22 307.391C1530.83 315.425 1522.06 319.523 1510.36 319.523V328.325ZM1544.1 312.87C1552.37 302.487 1556.15 287.583 1556.15 268.871H1547.35C1547.35 286.603 1543.74 299.203 1537.22 307.387L1544.1 312.87ZM1640.97 393.675L1641.63 389.324L1641.61 389.321L1641.59 389.318L1640.97 393.675ZM1619.57 389.162H1615.17V392.498L1618.38 393.399L1619.57 389.162ZM1619.57 364.408V360.007H1615.17V364.408H1619.57ZM1620.86 364.408L1622.46 360.309L1621.69 360.007H1620.86V364.408ZM1639.68 370.08L1640.83 365.832L1640.81 365.826L1640.79 365.821L1639.68 370.08ZM1698.6 362.345L1695.32 359.405L1695.29 359.446L1695.25 359.487L1698.6 362.345ZM1706.98 321.216H1711.38V312.06L1704.23 317.78L1706.98 321.216ZM1685.96 334.367L1687.7 338.412L1687.71 338.407L1687.72 338.401L1685.96 334.367ZM1619.57 320.056L1616.14 322.819L1616.15 322.832L1616.16 322.845L1619.57 320.056ZM1609.64 235.478L1605.54 233.877L1605.54 233.888L1605.53 233.898L1609.64 235.478ZM1623.95 212.142L1627.19 215.123L1627.2 215.113L1623.95 212.142ZM1644.32 197.96L1646.02 202.018L1646.04 202.01L1646.06 202.002L1644.32 197.96ZM1689.06 195.381L1687.76 199.587L1687.8 199.599L1687.84 199.61L1689.06 195.381ZM1706.98 202.988L1704.87 206.847L1709.87 209.588L1711.25 204.055L1706.98 202.988ZM1708.53 196.799V192.398H1705.09L1704.26 195.732L1708.53 196.799ZM1731.22 196.799H1735.62V192.398H1731.22V196.799ZM1706.98 301.232L1709.66 304.722L1711.38 303.401V301.232H1706.98ZM1706.98 222.714H1711.38V219.877L1708.8 218.706L1706.98 222.714ZM1688.93 216.525L1687.93 220.81L1687.96 220.819L1688 220.828L1688.93 216.525ZM1687.38 312.191L1688.94 316.308L1688.95 316.302L1688.97 316.297L1687.38 312.191ZM1726.82 324.439C1726.82 348.3 1721.38 364.874 1711.43 375.139L1717.75 381.267C1729.97 368.669 1735.62 349.4 1735.62 324.439H1726.82ZM1711.43 375.139C1701.48 385.396 1685.78 390.95 1663.4 390.95V399.751C1687.09 399.751 1705.52 393.873 1717.75 381.267L1711.43 375.139ZM1663.4 390.95C1655.97 390.95 1648.71 390.407 1641.63 389.324L1640.3 398.025C1647.84 399.177 1655.54 399.751 1663.4 399.751V390.95ZM1641.59 389.318C1634.56 388.314 1627.62 386.85 1620.75 384.925L1618.38 393.399C1625.61 395.428 1632.93 396.972 1640.35 398.031L1641.59 389.318ZM1623.97 389.162V364.408H1615.17V389.162H1623.97ZM1619.57 368.808H1620.86V360.007H1619.57V368.808ZM1619.25 368.506C1623.46 370.153 1629.95 372.098 1638.57 374.34L1640.79 365.821C1632.22 363.594 1626.16 361.756 1622.46 360.309L1619.25 368.506ZM1638.53 374.329C1647.49 376.747 1656.47 377.962 1665.46 377.962V369.161C1657.27 369.161 1649.06 368.055 1640.83 365.832L1638.53 374.329ZM1665.46 377.962C1674.03 377.962 1681.42 376.942 1687.47 374.73L1684.46 366.462C1679.68 368.204 1673.41 369.161 1665.46 369.161V377.962ZM1687.47 374.73C1693.43 372.556 1698.34 369.428 1701.95 365.202L1695.25 359.487C1692.84 362.31 1689.33 364.683 1684.46 366.462L1687.47 374.73ZM1701.88 365.284C1705.38 361.378 1707.84 356.713 1709.29 351.383L1700.8 349.067C1699.68 353.193 1697.84 356.607 1695.32 359.405L1701.88 365.284ZM1709.29 351.383C1710.7 346.214 1711.38 340.53 1711.38 334.367H1702.58C1702.58 339.893 1701.97 344.782 1700.8 349.067L1709.29 351.383ZM1711.38 334.367V321.216H1702.58V334.367H1711.38ZM1704.23 317.78C1697.15 323.446 1690.47 327.601 1684.21 330.333L1687.72 338.401C1694.87 335.288 1702.2 330.676 1709.73 324.653L1704.23 317.78ZM1684.23 330.322C1678.34 332.845 1670.52 334.221 1660.57 334.221V343.022C1671.24 343.022 1680.35 341.562 1687.7 338.412L1684.23 330.322ZM1660.57 334.221C1644.58 334.221 1632.21 328.54 1622.97 317.267L1616.16 322.845C1627.21 336.326 1642.17 343.022 1660.57 343.022V334.221ZM1622.99 317.292C1613.78 305.878 1608.88 289.459 1608.88 267.453H1600.08C1600.08 290.658 1605.24 309.307 1616.14 322.819L1622.99 317.292ZM1608.88 267.453C1608.88 255.465 1610.55 245.369 1613.75 237.058L1605.53 233.898C1601.85 243.465 1600.08 254.686 1600.08 267.453H1608.88ZM1613.74 237.079C1617.08 228.517 1621.57 221.218 1627.19 215.123L1620.71 209.16C1614.29 216.131 1609.24 224.389 1605.54 233.877L1613.74 237.079ZM1627.2 215.113C1632.33 209.503 1638.59 205.136 1646.02 202.018L1642.62 193.901C1634.07 197.488 1626.74 202.575 1620.7 209.17L1627.2 215.113ZM1646.06 202.002C1653.56 198.777 1660.92 197.203 1668.17 197.203V188.402C1659.61 188.402 1651.07 190.266 1642.58 193.917L1646.06 202.002ZM1668.17 197.203C1676.24 197.203 1682.73 198.039 1687.76 199.587L1690.35 191.175C1684.21 189.285 1676.78 188.402 1668.17 188.402V197.203ZM1687.84 199.61C1693.15 201.137 1698.82 203.533 1704.87 206.847L1709.09 199.128C1702.59 195.566 1696.32 192.891 1690.28 191.152L1687.84 199.61ZM1711.25 204.055L1712.8 197.867L1704.26 195.732L1702.71 201.92L1711.25 204.055ZM1708.53 201.2H1731.22V192.398H1708.53V201.2ZM1726.82 196.799V324.439H1735.62V196.799H1726.82ZM1711.38 301.232V222.714H1702.58V301.232H1711.38ZM1708.8 218.706C1702.13 215.683 1695.81 213.506 1689.86 212.223L1688 220.828C1693.22 221.951 1698.94 223.9 1705.16 226.722L1708.8 218.706ZM1689.93 212.241C1684.11 210.876 1678.28 210.191 1672.43 210.191V218.992C1677.58 218.992 1682.75 219.596 1687.93 220.81L1689.93 212.241ZM1672.43 210.191C1658.01 210.191 1646.23 215.087 1637.62 225.139L1644.31 230.862C1651.01 223.035 1660.2 218.992 1672.43 218.992V210.191ZM1637.62 225.139C1629.04 235.166 1625.09 249.328 1625.09 266.937H1633.89C1633.89 250.508 1637.59 238.713 1644.31 230.862L1637.62 225.139ZM1625.09 266.937C1625.09 283.492 1627.98 296.771 1634.36 306.157L1641.64 301.206C1636.68 293.918 1633.89 282.7 1633.89 266.937H1625.09ZM1634.36 306.157C1641.1 316.056 1652.12 320.589 1666.24 320.589V311.787C1654.05 311.787 1646.25 307.982 1641.64 301.206L1634.36 306.157ZM1666.24 320.589C1673.85 320.589 1681.43 319.147 1688.94 316.308L1685.83 308.075C1679.24 310.564 1672.72 311.787 1666.24 311.787V320.589ZM1688.97 316.297C1696.48 313.399 1703.39 309.54 1709.66 304.722L1704.3 297.742C1698.71 302.035 1692.55 305.483 1685.8 308.085L1688.97 316.297Z" fill="black"/>
<rect width="660.119" height="792.143" fill="#88AF4F"/>
<path d="M368.339 477.968C375.184 483.608 378.43 491.142 378.077 500.569C377.67 509.075 374.696 517.081 369.155 524.588L328.652 579.459C323.111 586.966 316.907 591.194 310.041 592.144C305.582 592.815 297.592 591.908 286.07 589.421L203.204 571.63C205.134 567.623 208.423 557.5 213.07 541.262C217.627 525.543 220.208 515.485 220.812 511.087C224.982 484.955 219.704 466.453 204.976 455.582C188.063 443.098 170.77 448.828 153.096 472.772L45.7883 618.146L26.2841 569.401L132.224 425.88C170.307 374.286 205.787 360.623 238.662 384.89C266.502 405.44 271.013 450.236 252.195 519.28L326.573 534.55L368.339 477.968ZM156.858 506.154L264.688 666.114L226.815 717.422L118.669 557.89L156.858 506.154ZM583.43 31.4646C596.669 45.3467 596.52 61.4568 582.984 79.7948L520.704 164.169L575.459 245.099L537.585 296.407L483.041 215.192L447.482 263.365C493.79 339.234 495.564 406.231 452.807 464.356C441.234 480.033 428.643 490.629 415.033 496.141C398.644 502.833 383.038 500.708 368.216 489.767C356.624 481.21 347.813 468.688 341.782 452.2C326.56 410.579 338.377 363.45 377.232 310.811L392.591 290.002L299.821 153.489L337.589 102.323L429.833 239.549L466.023 190.521L389.341 77.5521L427.319 26.1011L503.791 139.355L583.43 31.4646ZM409.399 314.959L406.348 319.092C392.531 337.81 384.915 358.17 383.501 380.171C381.828 405.504 389.828 424.694 407.501 437.739C419.758 446.787 429.919 445.847 437.985 434.92C448.084 421.238 448.482 400.614 439.178 373.05C432.195 352.483 422.268 333.119 409.399 314.959Z" fill="#3BB4FC"/>
<path d="M368.339 477.968L370.646 475.168L367.692 472.734L365.42 475.813L368.339 477.968ZM378.077 500.569L381.701 500.742L381.702 500.723L381.703 500.705L378.077 500.569ZM310.041 592.144L309.544 588.55L309.522 588.553L309.501 588.556L310.041 592.144ZM286.07 589.421L286.835 585.875L286.831 585.874L286.07 589.421ZM203.204 571.63L199.936 570.055L197.935 574.209L202.443 575.177L203.204 571.63ZM213.07 541.262L209.586 540.251L209.582 540.263L213.07 541.262ZM220.812 511.087L217.229 510.515L217.223 510.554L217.218 510.593L220.812 511.087ZM45.7883 618.146L42.42 619.494L44.8394 625.54L48.7072 620.301L45.7883 618.146ZM26.2841 569.401L23.3652 567.247L22.165 568.873L22.9157 570.749L26.2841 569.401ZM252.195 519.28L248.694 518.326L247.678 522.056L251.465 522.834L252.195 519.28ZM326.573 534.55L325.843 538.103L328.115 538.57L329.492 536.704L326.573 534.55ZM156.858 506.154L159.866 504.126L156.992 499.863L153.939 503.999L156.858 506.154ZM264.688 666.114L267.607 668.268L269.127 666.209L267.696 664.086L264.688 666.114ZM226.815 717.422L223.812 719.458L226.689 723.702L229.734 719.577L226.815 717.422ZM118.669 557.89L115.75 555.735L114.226 557.801L115.666 559.926L118.669 557.89ZM366.032 480.768C371.941 485.637 374.766 492.053 374.452 500.433L381.703 500.705C382.095 490.23 378.427 481.579 370.646 475.168L366.032 480.768ZM374.453 500.395C374.083 508.118 371.394 515.446 366.236 522.433L372.074 526.742C377.997 518.717 381.256 510.032 381.701 500.742L374.453 500.395ZM366.236 522.433L325.733 577.305L331.57 581.614L372.074 526.742L366.236 522.433ZM325.733 577.305C320.565 584.306 315.143 587.775 309.544 588.55L310.538 595.737C318.671 594.612 325.657 589.625 331.57 581.614L325.733 577.305ZM309.501 588.556C305.784 589.116 298.407 588.372 286.835 585.875L285.304 592.967C296.776 595.443 305.381 596.515 310.582 595.731L309.501 588.556ZM286.831 585.874L203.966 568.083L202.443 575.177L285.308 592.968L286.831 585.874ZM206.473 573.204C208.566 568.858 211.94 558.397 216.558 542.26L209.582 540.263C204.906 556.604 201.702 566.388 199.936 570.055L206.473 573.204ZM216.555 542.272C221.088 526.634 223.758 516.296 224.406 511.581L217.218 510.593C216.657 514.673 214.166 524.452 209.586 540.251L216.555 542.272ZM224.394 511.659C228.671 484.86 223.405 464.676 207.131 452.663L202.822 458.501C216.002 468.23 221.293 485.05 217.229 510.515L224.394 511.659ZM207.131 452.663C197.894 445.845 188.13 443.776 178.18 447.073C168.499 450.28 159.202 458.391 150.177 470.617L156.015 474.926C164.664 463.209 172.85 456.483 180.462 453.96C187.806 451.527 195.145 452.835 202.822 458.501L207.131 452.663ZM150.177 470.617L42.8694 615.991L48.7072 620.301L156.015 474.926L150.177 470.617ZM49.1566 616.798L29.6524 568.053L22.9157 570.749L42.42 619.494L49.1566 616.798ZM29.2029 571.556L135.143 428.034L129.305 423.725L23.3652 567.247L29.2029 571.556ZM135.143 428.034C154.025 402.454 171.91 386.789 188.7 380.323C205.183 373.975 220.978 376.346 236.508 387.809L240.817 381.971C223.471 369.167 205.089 366.236 186.092 373.552C167.403 380.749 148.506 397.712 129.305 423.725L135.143 428.034ZM236.508 387.809C249.373 397.305 257.13 412.559 259.315 434.263C261.508 456.036 258.047 484.01 248.694 518.326L255.695 520.234C265.16 485.506 268.853 456.559 266.535 433.536C264.21 410.444 255.791 393.024 240.817 381.971L236.508 387.809ZM251.465 522.834L325.843 538.103L327.302 530.996L252.924 515.726L251.465 522.834ZM329.492 536.704L371.257 480.122L365.42 475.813L323.654 532.395L329.492 536.704ZM153.85 508.182L261.68 668.142L267.696 664.086L159.866 504.126L153.85 508.182ZM261.769 663.959L223.896 715.268L229.734 719.577L267.607 668.268L261.769 663.959ZM229.818 715.386L121.672 555.854L115.666 559.926L223.812 719.458L229.818 715.386ZM121.588 560.045L159.777 508.309L153.939 503.999L115.75 555.735L121.588 560.045ZM583.43 31.4646L586.056 28.9608L583.076 25.836L580.511 29.31L583.43 31.4646ZM520.704 164.169L517.785 162.014L516.262 164.078L517.699 166.202L520.704 164.169ZM575.459 245.099L578.377 247.253L579.9 245.19L578.463 243.066L575.459 245.099ZM537.585 296.407L534.574 298.43L537.445 302.706L540.504 298.562L537.585 296.407ZM483.041 215.192L486.053 213.17L483.181 208.894L480.122 213.038L483.041 215.192ZM447.482 263.365L444.563 261.211L443.115 263.173L444.385 265.255L447.482 263.365ZM452.807 464.356L455.726 466.51L455.729 466.506L452.807 464.356ZM415.033 496.141L413.671 492.779L413.661 492.783L415.033 496.141ZM341.782 452.2L338.375 453.446L338.375 453.446L341.782 452.2ZM392.591 290.002L395.51 292.157L397.037 290.089L395.592 287.963L392.591 290.002ZM299.821 153.489L296.902 151.334L295.376 153.402L296.82 155.528L299.821 153.489ZM337.589 102.323L340.6 100.299L337.728 96.0262L334.67 100.168L337.589 102.323ZM429.833 239.549L426.822 241.573L429.695 245.846L432.752 241.704L429.833 239.549ZM466.023 190.521L468.942 192.675L470.468 190.609L469.025 188.483L466.023 190.521ZM389.341 77.5521L386.422 75.3975L384.896 77.4643L386.339 79.5896L389.341 77.5521ZM427.319 26.1011L430.326 24.0709L427.451 19.8134L424.4 23.9465L427.319 26.1011ZM503.791 139.355L500.785 141.385L503.659 145.643L506.71 141.51L503.791 139.355ZM409.399 314.959L412.359 312.861L409.458 308.769L406.48 312.804L409.399 314.959ZM383.501 380.171L387.121 380.41L387.121 380.404L383.501 380.171ZM439.178 373.05L442.615 371.889L442.613 371.883L439.178 373.05ZM580.805 33.9684C586.905 40.3654 589.684 46.9904 589.62 53.9252C589.555 60.958 586.562 68.8392 580.065 77.6403L585.903 81.9494C592.943 72.4124 596.792 63.0696 596.875 53.9922C596.96 44.817 593.194 36.4459 586.056 28.9608L580.805 33.9684ZM580.065 77.6403L517.785 162.014L523.623 166.323L585.903 81.9494L580.065 77.6403ZM517.699 166.202L572.454 247.132L578.463 243.066L523.708 162.136L517.699 166.202ZM572.54 242.944L534.666 294.253L540.504 298.562L578.377 247.253L572.54 242.944ZM540.597 294.385L486.053 213.17L480.029 217.215L534.574 298.43L540.597 294.385ZM480.122 213.038L444.563 261.211L450.401 265.52L485.96 217.347L480.122 213.038ZM444.385 265.255C467.313 302.819 479.051 337.92 479.917 370.611C480.782 403.239 470.824 433.74 449.884 462.206L455.729 466.506C477.547 436.847 488.081 404.787 487.171 370.419C486.262 336.112 473.959 299.78 450.579 261.475L444.385 265.255ZM449.888 462.201C438.586 477.512 426.489 487.587 413.671 492.779L416.395 499.504C430.797 493.67 443.882 482.555 455.726 466.51L449.888 462.201ZM413.661 492.783C398.501 498.973 384.225 497.075 370.371 486.848L366.061 492.686C381.852 504.341 398.787 506.693 416.404 499.5L413.661 492.783ZM370.371 486.848C359.466 478.799 351.029 466.921 345.189 450.954L338.375 453.446C344.596 470.455 353.783 483.622 366.061 492.686L370.371 486.848ZM345.189 450.954C330.561 410.956 341.651 365.122 380.151 312.965L374.313 308.656C335.102 361.777 322.559 410.202 338.375 453.446L345.189 450.954ZM380.151 312.965L395.51 292.157L389.672 287.848L374.313 308.656L380.151 312.965ZM395.592 287.963L302.822 151.45L296.82 155.528L389.591 292.042L395.592 287.963ZM302.74 155.643L340.508 104.478L334.67 100.168L296.902 151.334L302.74 155.643ZM334.578 104.347L426.822 241.573L432.844 237.525L340.6 100.299L334.578 104.347ZM432.752 241.704L468.942 192.675L463.104 188.366L426.914 237.394L432.752 241.704ZM469.025 188.483L392.342 75.5145L386.339 79.5896L463.022 192.558L469.025 188.483ZM392.26 79.7067L430.238 28.2556L424.4 23.9465L386.422 75.3975L392.26 79.7067ZM424.312 28.1313L500.785 141.385L506.798 137.325L430.326 24.0709L424.312 28.1313ZM506.71 141.51L586.349 33.6191L580.511 29.31L500.872 137.2L506.71 141.51ZM406.48 312.804L403.429 316.937L409.267 321.247L412.317 317.113L406.48 312.804ZM403.429 316.937C389.223 336.183 381.342 357.203 379.88 379.938L387.121 380.404C388.489 359.136 395.839 339.437 409.267 321.247L403.429 316.937ZM379.881 379.932C378.141 406.274 386.51 426.754 405.346 440.658L409.655 434.82C393.146 422.634 385.515 404.735 387.121 380.41L379.881 379.932ZM405.346 440.658C411.847 445.457 418.333 448.017 424.649 447.432C431.071 446.839 436.471 443.08 440.904 437.075L435.066 432.765C431.433 437.687 427.72 439.862 423.981 440.207C420.135 440.563 415.411 439.069 409.655 434.82L405.346 440.658ZM440.904 437.075C452.089 421.921 452.031 399.786 442.615 371.889L435.741 374.21C444.933 401.443 444.08 420.554 435.066 432.765L440.904 437.075ZM442.613 371.883C435.515 350.976 425.426 331.3 412.359 312.861L406.439 317.056C419.111 334.938 428.875 353.989 435.743 374.216L442.613 371.883Z" fill="black"/>
<path d="M704.127 404.873H1804.33" stroke="#607A39" stroke-width="17.6032" stroke-linecap="round"/>
<path d="M1075.86 445.174H1093.05V467.522H1075.86V445.174ZM1075.86 495.027H1093.05V591.294H1075.86V495.027ZM1128.29 461.505H1145.48V495.027H1174.7V508.779H1145.48V564.649C1145.48 568.087 1146.91 571.238 1149.78 574.103C1152.07 576.395 1155.79 577.541 1160.95 577.541C1168.97 577.541 1176.13 575.536 1182.44 571.525V587.856C1176.13 591.294 1169.26 593.013 1161.81 593.013C1150.35 593.013 1142.04 590.434 1136.88 585.277C1131.15 579.547 1128.29 573.244 1128.29 566.368V508.779H1107.66V495.027H1128.29V461.505ZM1195.33 543.16C1195.33 527.689 1200.2 515.082 1209.94 505.341C1217.96 497.319 1228.28 493.308 1240.89 493.308C1252.92 493.308 1263.23 497.605 1271.83 506.2C1279.85 514.223 1283.86 526.543 1283.86 543.16H1214.24C1214.24 555.194 1217.11 564.076 1222.84 569.806C1227.99 574.963 1234.58 577.541 1242.6 577.541C1250.63 577.541 1256.36 575.822 1259.8 572.384C1263.81 568.373 1265.81 563.789 1265.81 558.632H1284.72C1282.43 568.946 1278.7 576.682 1273.55 581.839C1266.1 589.288 1255.78 593.013 1242.6 593.013C1228.85 593.013 1217.68 588.715 1209.08 580.12C1199.91 570.952 1195.33 558.632 1195.33 543.16ZM1240.03 507.92C1233.15 507.92 1227.42 510.212 1222.84 514.796C1218.82 518.807 1216.25 523.678 1215.1 529.408H1264.09C1264.09 523.678 1261.8 518.52 1257.22 513.936C1253.21 509.925 1247.48 507.92 1240.03 507.92ZM1325.12 591.294H1307.93V495.027H1325.12V509.639C1332.57 498.751 1341.16 493.308 1350.91 493.308C1361.79 493.308 1370.1 496.173 1375.83 501.903C1378.7 504.768 1380.99 507.92 1382.71 511.358C1390.16 499.324 1400.47 493.308 1413.65 493.308C1422.82 493.308 1429.98 495.886 1435.14 501.043C1440.87 506.774 1443.73 513.077 1443.73 519.953V591.294H1426.54V523.391C1426.54 519.953 1425.4 517.088 1423.11 514.796C1419.67 511.358 1415.66 509.639 1411.07 509.639C1403.05 509.639 1396.46 512.217 1391.3 517.374C1386.72 521.959 1384.43 526.256 1384.43 530.267V591.294H1367.24V524.251C1367.24 520.813 1365.52 517.374 1362.08 513.936C1359.21 511.071 1354.92 509.639 1349.19 509.639C1342.88 509.639 1337.44 511.931 1332.86 516.515C1327.7 521.672 1325.12 526.543 1325.12 531.127V591.294Z" fill="#3BB4FC"/>
</g>
</svg>
